<svg width="105" height="29" viewBox="0 0 105 29" fill="none" xmlns="http://www.w3.org/2000/svg">
<rect x="80.1511" y="1.78662" width="24.849" height="23.7527" rx="1.77352" fill="#D8BA7C"/>
<path d="M85.8567 4.02655L82.8386 4.02655V18.6504C82.8386 21.7234 84.3751 23.4793 87.3383 23.4793C90.3015 23.4793 91.8379 21.7234 91.8379 18.6504V4.02655L88.9845 4.02655V18.8425C88.9845 20.2143 88.3809 20.7082 87.4206 20.7082C86.4603 20.7082 85.8567 20.2143 85.8567 18.8425V4.02655Z" fill="white"/>
<path d="M98.3525 4.02655L93.9077 4.02655V23.2324H96.9258V16.0165H98.3525C101.371 16.0165 102.852 14.3428 102.852 11.2699V8.77314C102.852 5.7002 101.371 4.02655 98.3525 4.02655ZM96.9258 6.77024L98.3525 6.77024C99.3128 6.77024 99.8341 7.20923 99.8341 8.58108V11.462C99.8341 12.8338 99.3128 13.2728 98.3525 13.2728H96.9258V6.77024Z" fill="white"/>
<path d="M9.50103 12.9144L10.8392 25.3928H15.7235L18.333 1.97479H15.1214L13.2145 20.5754L11.3745 1.97479H7.82831L6.05523 20.4416L4.08143 1.97479H0.501815L3.11125 25.3928H8.16286L9.50103 12.9144ZM19.8878 7.59512V19.7725C19.8878 23.5194 21.8616 25.6605 25.4747 25.6605C29.0878 25.6605 31.0616 23.5194 31.0616 19.7725V7.59512C31.0616 3.84823 29.0878 1.70715 25.4747 1.70715C21.8616 1.70715 19.8878 3.84823 19.8878 7.59512ZM23.5678 20.0067V7.36093C23.5678 5.68822 24.3038 5.05259 25.4747 5.05259C26.6456 5.05259 27.3816 5.68822 27.3816 7.36093V20.0067C27.3816 21.6794 26.6456 22.315 25.4747 22.315C24.3038 22.315 23.5678 21.6794 23.5678 20.0067ZM41.2479 18.6016L38.5381 1.97479H33.4196V25.3928H36.6312V8.83293L39.3744 25.3928H42.8537L45.3962 8.59875V25.3928H48.8755V1.97479H43.757L41.2479 18.6016ZM63.4621 25.3928L59.7152 1.97479H54.3291L50.5822 25.3928H53.9611L54.5967 21.1441H59.113L59.7487 25.3928H63.4621ZM55.0651 17.966L56.8381 6.12312L58.6112 17.966H55.0651ZM68.4544 8.43147L73.0376 25.3928H76.8179V1.97479H73.5394V15.9922L69.7591 1.97479H65.1424V25.3928H68.4544V8.43147Z" fill="black"/>
</svg>
