<svg width="24" height="24" viewBox="0 0 24 24" fill="none" xmlns="http://www.w3.org/2000/svg">
<path d="M19.7782 4.22182C17.7006 2.14421 14.9382 1 12 1C9.06168 1 6.29942 2.14421 4.22182 4.22182C2.14421 6.29942 1 9.06168 1 12C1 14.9382 2.14421 17.7006 4.22182 19.7782C6.29942 21.8558 9.06168 23 12 23C14.9382 23 17.7006 21.8558 19.7782 19.7782C21.8558 17.7006 23 14.9382 23 12C23 9.06168 21.8558 6.29942 19.7782 4.22182ZM6.5146 20.0088C6.97467 17.3598 9.27014 15.4059 12 15.4059C14.73 15.4059 17.0253 17.3598 17.4854 20.0088C15.9236 21.0818 14.034 21.7109 12 21.7109C9.96603 21.7109 8.07642 21.0818 6.5146 20.0088ZM8.50241 10.6193C8.50241 8.69057 10.0714 7.1217 12 7.1217C13.9286 7.1217 15.4976 8.69073 15.4976 10.6193C15.4976 12.5479 13.9286 14.1169 12 14.1169C10.0714 14.1169 8.50241 12.5479 8.50241 10.6193ZM18.6019 19.1147C18.255 17.8815 17.566 16.7626 16.6002 15.8887C16.0077 15.3524 15.3333 14.9293 14.6082 14.631C15.9187 13.7762 16.7868 12.2973 16.7868 10.6193C16.7868 7.9799 14.6394 5.83264 12 5.83264C9.36061 5.83264 7.21335 7.9799 7.21335 10.6193C7.21335 12.2973 8.08145 13.7762 9.39183 14.631C8.6669 14.9293 7.99232 15.3522 7.39983 15.8885C6.4342 16.7625 5.74503 17.8813 5.39809 19.1145C3.48715 17.3399 2.28906 14.8074 2.28906 12C2.28906 6.64536 6.64536 2.28906 12 2.28906C17.3546 2.28906 21.7109 6.64536 21.7109 12C21.7109 14.8076 20.5128 17.34 18.6019 19.1147Z" fill="#331C20"/>
</svg>
